{"title":"]Dirty Harry 1971 BluRay 1080p ac3 x264 SpaceHD","uid":5876935,"size":8673110226,"categoryP":"video","categoryS":"hd___movies","magnet":"?xt=urn:btih:301658270ea9e28b41b0b07876ae4c7ab50b1818&amp;dn=%5DDirty+Harry+1971+BluRay+1080p+ac3+x264+SpaceHD&amp;tr=udp%3A%2F%2Ftracker.openbittorrent.com%3A80&amp;tr=udp%3A%2F%2Fopen.demonii.com%3A1337&amp;tr=udp%3A%2F%2Ftracker.coppersurfer.tk%3A6969&amp;tr=udp%3A%2F%2Fexodus.desync.com%3A6969","seeders":0,"leechers":1,"uploader":"bobnjeff","files":1,"time":1286674298,"description":"Dirty Harry 1971 BluRay 1080p ac3 x264 SpaceHD\n\nEncoded for HD-Space.org by Tequila-Bob a.k.a. bobnjeff\nSource - NTSC BluRay Disc\n &lt;a href=&quot;\nhttp://www.imdb.com/title/tt0066999/&quot; rel=&quot;nofollow&quot; target=&quot;_NEW&quot;&gt;\nhttp://www.imdb.com/title/tt0066999/&lt;/a&gt;\n\nRelease Date:23 December 1971 (USA)\n\nGenres:Action | Crime | Thriller \n\nRated: R (Restricted) \n\nStoryline\nIn the year 1971, San Francisco faces the terror of a maniac known as Scorpio- who snipes at innocent victims and demands ransom through notes left at the scene of the crime. Inspector Harry Callahan (known as Dirty Harry by his peers through his reputation handling of homicidal cases) is assigned to the case along with his newest partner Inspector Chico Gonzalez to track down Scorpio and stop him. Using humiliation and cat and mouse type of games against Callahan, Scorpio is put to the test with the cop with a dirty attitude. \n\n\nCast\nCast overview, first billed only: \n  Clint Eastwood  ...  Police Inspector Harry Callahan  \n  Harry Guardino  ...  Police Lt. Al Bressler  \n  Reni Santoni  ...  Police Inspector Chico Gonzalez  \n  John Vernon  ...  The Mayor  \n  Andrew Robinson  ...  Charles 'Scorpio Killer' Davis (as Andy Robinson)  \n  John Larch  ...  The Chief  \n  John Mitchum  ...  Police Inspector Frank DiGiorgio  \n  Mae Mercer  ...  Mrs. Russell  \n  Lyn Edgington  ...  Norma  \n  Ruth Kobart  ...  Bus Driver  \n  Woodrow Parfrey  ...  Mr. Jaffe  \n  Josef Sommer  ...  Dist. Atty. William T. Rothko  \n  William Paterson  ...  Judge Bannerman  \n  James Nolan  ...  Liquor Store Owner  \n  Maurice Argent  ...  Sid Kleinman (as Maurice S. Argent)[/color] \n\n\n\n\n\n Format                           : Matroska\nFile size                        : 8.08 GiB\nDuration                         : 1h 42mn\nOverall bit rate                 : 11.3 Mbps\nEncoded date                     : UTC 2010-10-07 22:31:16\nWriting application              : mkvmerge v4.3.0 ('Escape from the Island')\n\nBit rate                         : 10.5 Mbps\nWidth                            : 1 920 pixels\nHeight                           : 800 pixels\nDisplay aspect ratio             : 2.40:1\nFrame rate                       : 23.976 fps\nColor space                      : YUV\nChroma subsampling               : 4:2:0\nBit depth                        : 8 bits\nScan type                        : Progressive\nBits/(Pixel*Frame)               : 0.284\nStream size                      : 7.46 GiB (92%)\n\nAudio\nLanguage                         : English\nFormat                           : AC-3\nFormat/Info                      : Audio Coding 3\nMode extension                   : CM (complete main)\nCodec ID                         : A_AC3\nDuration                         : 1h 42mn\nBit rate mode                    : Constant\nBit rate                         : 640 Kbps\nChannel(s)                       : 6 channels\nChannel positions                : Front: L C R, Side: L R, LFE\nSampling rate                    : 48.0 KHz\nStream size                      : 469 MiB (6%)\n\nSubtitles                        : English, French, German, Italian, Spanish, Norwegian\n                                   Dutch,  Portuguese,  Danish, Finnish, Swedish, Japanese\n\nMenu                             : Chapters 30\n &lt;a href=&quot;\nhttp://photobucket.com/dirty_harry_SpaceHD_tequila_bob&quot; rel=&quot;nofollow&quot; target=&quot;_NEW&quot;&gt;\nhttp://photobucket.com/dirty_harry_SpaceHD_tequila_bob&lt;/a&gt;  \n\n","torrent":{"xt":"urn:btih:301658270ea9e28b41b0b07876ae4c7ab50b1818","amp;dn":"%5DDirty+Harry+1971+BluRay+1080p+ac3+x264+SpaceHD","amp;tr":["udp%3A%2F%2Ftracker.openbittorrent.com%3A80","udp%3A%2F%2Fopen.demonii.com%3A1337","udp%3A%2F%2Ftracker.coppersurfer.tk%3A6969","udp%3A%2F%2Fexodus.desync.com%3A6969"],"infoHash":"301658270ea9e28b41b0b07876ae4c7ab50b1818","infoHashBuffer":{"type":"Buffer","data":[48,22,88,39,14,169,226,139,65,176,176,120,118,174,76,122,181,11,24,24]},"announce":[],"urlList":[]}}